<svg width="40" height="40" viewBox="0 0 40 40" fill="none" xmlns="http://www.w3.org/2000/svg">
<mask id="mask0_6_216" style="mask-type:alpha" maskUnits="userSpaceOnUse" x="0" y="0" width="40" height="40">
<rect x="40" y="40" width="40" height="40" transform="rotate(-180 40 40)" fill="#D9D9D9"/>
</mask>
<g mask="url(#mask0_6_216)">
<path d="M19.1697 20L24.4891 14.6805L21.7778 11.904L13.7053 20L21.7778 28.096L24.4891 25.3195L19.1697 20ZM20 2.25605C22.4316 2.25605 24.7375 2.71863 26.9177 3.6438C29.0978 4.56899 30.9893 5.83298 32.592 7.43576C34.1948 9.03853 35.4542 10.9232 36.3701 13.0899C37.286 15.2565 37.744 17.5591 37.744 19.9978C37.744 22.4555 37.2852 24.7645 36.3676 26.9251C35.4501 29.0857 34.1856 30.9707 32.5743 32.5802C30.9631 34.1897 29.0716 35.4553 26.9 36.377C24.7284 37.2988 22.4261 37.7597 19.9932 37.7597C17.5502 37.7597 15.252 37.2993 13.0987 36.3787C10.9454 35.458 9.06394 34.1937 7.45442 32.5857C5.84489 30.9776 4.5735 29.0912 3.64025 26.9262C2.70698 24.7613 2.24033 22.4472 2.24034 19.9838C2.24034 17.5396 2.7068 15.2408 3.63975 13.0873C4.5727 10.9338 5.84295 9.05361 7.4505 7.44675C9.05803 5.83992 10.9401 4.57309 13.0966 3.64625C15.2532 2.71945 17.5543 2.25605 20 2.25605Z" fill="#FD4556"/>
</g>
</svg>
