<svg width="285" height="112" viewBox="0 0 285 112" fill="none" xmlns="http://www.w3.org/2000/svg">
<path d="M69.104 24.096L43.248 44H0.688V0.799999H21.232V40.544L48.56 19.488V0.799999H69.104V24.096ZM96.8145 0.799999H139.375V44H118.831V29.408H91.5025V44H70.9585V20.768L96.8145 0.799999ZM118.831 25.376V4.256L91.5025 25.376H118.831ZM213.229 44H144.813V0.799999H165.357V40.032H192.685L173.677 25.376H200.237L213.229 35.424V44ZM283.542 44H215.126V0.799999H283.542V44ZM235.67 40.032H262.998V4.832H235.67V40.032Z" fill="white"/>
<path d="M69.104 112H0.688V68.8H43.248L69.104 88.768H42.608L21.232 72.256V108.032H48.56L29.552 93.376H56.112L69.104 103.424V112ZM140.417 112H72.0005V68.8H92.5445V108.032H119.873V68.8H140.417V112ZM214.292 112H193.748V93.376L166.42 72.256V112H145.876V68.8H188.436L214.292 88.768V112ZM284.306 112H241.746L217.554 93.376H244.05L263.762 108.544V87.488H215.89V68.8H284.306V72.832H236.434V83.456H284.306V112Z" fill="#FD4556"/>
</svg>
